Coordinates
version=1
nRows=7
nColumns=40
inDegrees=yes

Units are S.I. units (second, meters, Newtons, ...)
Angles are in degrees.

endheader
time	pelvis_tilt	pelvis_list	pelvis_rotation	pelvis_tx	pelvis_ty	pelvis_tz	hip_flexion_r	hip_adduction_r	hip_rotation_r	knee_angle_r	knee_angle_r_beta	ankle_angle_r	subtalar_angle_r	mtp_angle_r	hip_flexion_l	hip_adduction_l	hip_rotation_l	knee_angle_l	knee_angle_l_beta	ankle_angle_l	subtalar_angle_l	mtp_angle_l	lumbar_extension	lumbar_bending	lumbar_rotation	arm_flex_r	arm_add_r	arm_rot_r	elbow_flex_r	pro_sup_r	wrist_flex_r	wrist_dev_r	arm_flex_l	arm_add_l	arm_rot_l	elbow_flex_l	pro_sup_l	wrist_flex_l	wrist_dev_l
     46.45500000	     -3.48508912	     -4.15231951	     13.45906945	      1.06716524	      0.92089877	      0.54638037	      4.81431600	      3.57222726	    -13.46430843	     18.14604386	     18.14604386	     18.77662474	     -6.29648808	     -1.48208400	     26.93989241	    -10.17683480	      2.48905330	     19.00605365	     19.00605365	      7.04890006	      0.67689605	      5.52963070	     -7.84364822	      4.47522746	      2.04733041	     57.95163309	    -20.35565417	     -9.52213466	     79.61751384	     44.99107609	      0.00000000	      0.00000000	    -19.33794059	     -7.43377893	     23.04822525	     27.97681035	     42.42171579	      0.00000000	      0.00000000
     46.47550000	     -3.63739223	     -4.28772450	     13.42074189	      1.06731495	      0.92007365	      0.54304193	      4.54043467	      3.55863573	    -13.40007781	     17.93379969	     17.93379969	     19.04040383	     -6.22596914	     -1.55762142	     26.89596293	     -9.98196243	      2.42172350	     19.04310372	     19.04310372	      6.97139184	      0.91333445	      5.36482228	     -7.59610845	      4.40663218	      1.95396273	     57.89181431	    -20.16204615	     -9.50781777	     79.65534925	     44.98986585	      0.00000000	      0.00000000	    -18.69924033	     -7.58575663	     23.00165380	     28.10974122	     42.44401532	      0.00000000	      0.00000000
     46.49600000	     -3.50831272	     -4.47992933	     13.29871064	      1.06829115	      0.91975203	      0.53975199	      3.60977280	      3.72470437	    -13.50964985	     17.09249300	     17.09249300	     18.96963539	     -5.61296778	     -1.92089070	     26.56020951	    -10.20428755	      1.54533144	     19.23403855	     19.23403855	      5.79650536	      2.06174183	      1.30727237	     -7.54932111	      4.38275459	      2.20903625	     57.20336410	    -19.85392737	    -10.70962820	     80.32450355	     45.02850818	      0.00000000	      0.00000000	    -17.80023777	     -7.76424486	     22.81498396	     27.67370232	     42.64290889	      0.00000000	      0.00000000
     46.51650000	     -3.51594746	     -4.58993969	     13.14067802	      1.06914583	      0.91947111	      0.53617596	      2.91987975	      3.74528814	    -13.43586705	     16.45488723	     16.45488723	     19.01440551	     -5.26347864	     -1.84488370	     26.49018657	    -10.09953591	      1.79578773	     19.88993554	     19.88993554	      5.54999715	      1.34131089	      0.37283363	     -7.40985553	      4.29271119	      2.25511479	     56.74771894	    -19.71204468	    -10.71331975	     80.24896338	     45.03685624	      0.00000000	      0.00000000	    -17.04942673	     -8.05775308	     22.65256461	     27.74941766	     42.72893287	      0.00000000	      0.00000000
     46.53700000	     -3.52804353	     -4.62580905	     12.89233403	      1.07015174	      0.91924481	      0.53252286	      2.30620747	      3.64368589	    -13.32193876	     16.01042722	     16.01042722	     19.11766405	     -4.93807372	     -1.77853668	     26.47165770	     -9.99288786	      1.93866582	     20.78284768	     20.78284768	      5.55320298	      0.63095434	     -0.35251114	     -7.28070905	      4.10574999	      2.27723449	     56.16844312	    -19.55993930	    -10.75170727	     80.08988338	     45.04498426	      0.00000000	      0.00000000	    -16.31241257	     -8.40174501	     22.48166735	     27.84700829	     42.79297646	      0.00000000	      0.00000000
     46.55750000	     -3.54739326	     -4.64104804	     12.57126853	      1.07129193	      0.91919769	      0.52879175	      1.65988804	      3.50397984	    -13.20831950	     15.51285779	     15.51285779	     19.18484105	     -4.41843736	     -1.64862755	     26.38402473	     -9.84823391	      2.24082729	     21.59671305	     21.59671305	      5.45583056	     -0.51670387	     -1.28817738	     -7.16832316	      3.92196372	      2.49254713	     55.54208301	    -19.47559339	    -10.89329666	     79.88565167	     45.06102095	      0.00000000	      0.00000000	    -15.39417587	     -8.81450767	     22.14214794	     27.95273673	     42.90724231	      0.00000000	      0.00000000
     46.57800000	     -3.57726586	     -4.56352646	     12.15374532	      1.07249171	      0.91927360	      0.52501063	      1.15636806	      3.21315481	    -12.96654205	     15.29841781	     15.29841781	     19.17526700	     -4.13630896	     -1.56918920	     26.25774204	     -9.68817620	      2.23306944	     22.42560697	     22.42560697	      5.72289680	     -1.29245445	     -1.66134268	     -7.07983782	      3.65151501	      2.56144923	     54.96444020	    -19.18378532	    -10.79429761	     79.66322506	     45.06405329	      0.00000000	      0.00000000	    -14.59146581	     -9.26227565	     21.96310816	     28.09452623	     42.95735649	      0.00000000	      0.00000000
